<svg width="100" height="100" viewBox="0 0 100 100" fill="none" xmlns="http://www.w3.org/2000/svg">
<path d="M22.2412 71.9454C15.3661 71.9454 9.77146 66.3507 9.77146 59.4741C9.77146 52.5975 15.3661 47.0028 22.2412 47.0028H23.7277C29.3271 35.9149 40.8193 28.2888 54.0667 28.2888H58.4044L66.1008 8.03835C67.9277 3.23064 72.6214 0 77.782 0C79.2904 0 80.7722 0.273254 82.1884 0.810393C88.6154 3.2525 91.8569 10.4695 89.4148 16.898L71.708 63.4933C69.8483 68.39 64.7361 71.9454 59.5552 71.9454H49.4339V92.6409H63.2871C65.0109 92.6409 66.41 94.0399 66.41 95.7638V96.8771C66.41 98.6009 65.0109 100 63.2871 100H24.7723C23.0485 100 21.6494 98.6009 21.6494 96.8771V95.7638C21.6494 94.0399 23.0485 92.6409 24.7723 92.6409H38.6255V71.9454H22.2412ZM54.0667 34.5346C44.4138 34.5346 35.907 39.5 30.94 47.0028H51.292L56.031 34.5346H54.0667Z" fill="#A38D8A"/>
</svg>
