<svg width="101" height="106" viewBox="0 0 101 106" fill="none" xmlns="http://www.w3.org/2000/svg">
<path d="M62.4314 33.3053C62.4311 30.847 61.7018 28.444 60.3358 26.4002C58.9698 24.3563 57.0284 22.7634 54.7571 21.8229C52.4858 20.8824 49.9867 20.6364 47.5756 21.1162C45.1646 21.596 42.95 22.78 41.2118 24.5184C39.4736 26.2568 38.29 28.4716 37.8105 30.8827C37.331 33.2938 37.5773 35.7929 38.5181 38.0641C39.4589 40.3352 41.0521 42.2764 43.0961 43.6421C45.1402 45.0079 47.5433 45.7368 50.0016 45.7368C53.2973 45.7328 56.4567 44.4217 58.787 42.0912C61.1172 39.7607 62.4279 36.601 62.4314 33.3053V33.3053ZM40.5158 33.3053C40.5162 31.4293 41.0728 29.5955 42.1153 28.0358C43.1578 26.4761 44.6394 25.2605 46.3727 24.5428C48.106 23.8251 50.0133 23.6375 51.8532 24.0037C53.6932 24.3699 55.3832 25.2735 56.7096 26.6002C58.0361 27.9268 58.9393 29.617 59.3052 31.4571C59.6711 33.2971 59.4831 35.2043 58.7651 36.9374C58.0471 38.6706 56.8313 40.152 55.2714 41.1943C53.7115 42.2365 51.8776 42.7928 50.0016 42.7928C47.4864 42.7899 45.0751 41.7893 43.2968 40.0107C41.5184 38.232 40.5183 35.8205 40.5158 33.3053V33.3053Z" fill="#A38D8A"/>
<path d="M99.9062 104.003L87.9062 72.5437C87.7997 72.2652 87.6113 72.0255 87.3657 71.8564C87.1202 71.6873 86.829 71.5967 86.5309 71.5966H63.8196C63.9584 71.3703 64.0963 71.1507 64.2351 70.9236C72.9739 56.4557 77.3715 43.7996 77.3084 33.312C77.3096 26.0697 74.4338 19.1234 69.3135 14.0014C64.1933 8.87943 57.248 6.00123 50.0056 6C42.7633 5.99877 35.817 8.87462 30.695 13.9949C25.573 19.1151 22.6948 26.0604 22.6936 33.3028C22.6305 43.7996 27.0281 56.4574 35.7669 70.9236C35.9057 71.1533 36.0436 71.3728 36.1824 71.5966H13.4711C13.173 71.5967 12.8818 71.6873 12.6363 71.8564C12.3907 72.0255 12.2023 72.2652 12.0958 72.5437L0.0975231 104.003C0.0120313 104.226 -0.0179058 104.466 0.0102987 104.703C0.0385032 104.94 0.124001 105.167 0.259405 105.364C0.394809 105.56 0.576046 105.721 0.787458 105.832C0.99887 105.943 1.2341 106 1.47282 106H98.5309C98.7696 106 99.0048 105.943 99.2162 105.832C99.4276 105.721 99.6089 105.56 99.7443 105.364C99.8797 105.167 99.9652 104.94 99.9934 104.703C100.022 104.466 99.9916 104.226 99.9062 104.003V104.003ZM25.6385 33.3053C25.639 30.1059 26.2698 26.9379 27.4947 23.9822C28.7195 21.0265 30.5146 18.341 32.7773 16.079C35.0401 13.8171 37.7262 12.023 40.6823 10.7991C43.6384 9.57524 46.8066 8.94561 50.006 8.94616C53.2055 8.94671 56.3735 9.57744 59.3292 10.8023C62.2849 12.0272 64.9703 13.8223 67.2323 16.085C69.4943 18.3477 71.2884 21.0338 72.5122 23.9899C73.7361 26.9461 74.3657 30.1143 74.3652 33.3137C74.4914 54.2233 54.9428 80.0124 50.0018 86.1966C45.0609 80.0149 25.5115 54.2325 25.6385 33.3053V33.3053ZM48.8806 89.4771C49.0188 89.6396 49.1906 89.77 49.3842 89.8595C49.5778 89.949 49.7886 89.9954 50.0018 89.9954C50.2151 89.9954 50.4259 89.949 50.6195 89.8595C50.8131 89.77 50.9849 89.6396 51.1231 89.4771C55.0314 84.716 58.6548 79.7279 61.9741 74.5389H85.5156L87.3998 79.4808L41.3959 95.8421L24.9984 74.5364H38.0279C41.3477 79.7263 44.9716 84.7152 48.8806 89.4771V89.4771ZM41.3446 98.9822H41.353L68.7976 89.2247L79.4424 103.056H29.8981L41.3446 98.9822ZM14.4864 74.5364H21.283L38.478 96.8793L21.1139 103.055H3.60936L14.4864 74.5364ZM83.1612 103.056L71.7138 88.1826L88.4529 82.2297L96.396 103.056H83.1612Z" fill="#A38D8A"/>
<path d="M49.9999 0C31.6202 0 16.6665 14.9537 16.6665 33.3334C16.6665 38.851 18.046 44.3217 20.6685 49.174L48.1771 98.9258C48.5433 99.5891 49.2411 100 49.9999 100C50.7587 100 51.4565 99.5891 51.8228 98.9258L79.3415 49.1576C81.9538 44.3217 83.3333 38.8508 83.3333 33.3332C83.3333 14.9537 68.3796 0 49.9999 0ZM49.9999 50C40.8101 50 33.3333 42.5232 33.3333 33.3334C33.3333 24.1436 40.8101 16.6668 49.9999 16.6668C59.1897 16.6668 66.6665 24.1436 66.6665 33.3334C66.6665 42.5232 59.1897 50 49.9999 50Z" fill="#A38D8A"/>
</svg>
