<svg width="1920" height="663" viewBox="0 0 1920 663" fill="none" xmlns="http://www.w3.org/2000/svg">
<path d="M-198 404.579C20.7042 191.727 290.207 54.0168 576.5 6.50003C695.5 -7 810.605 4.75723 927.063 23.6958C1223.72 72.0445 1452.39 195.42 1599.24 294.229L2043 109.088V739.147L-198 774V404.579Z" fill="#DFD2CF"/>
<path d="M-239 272.835C-126.569 201.202 -6.18808 142.861 119.722 98.9839C181.247 77.5211 281.617 42.5359 400.006 28.3269C473.543 19.521 624.951 10.2075 916.679 101.7C1172.85 182.029 1257.32 252.865 1642.79 426.537C1793.36 494.388 1918.05 545.94 1999 578.776C1994.46 633.104 1990.04 639.672 1985.4 694H-124.795C-109.023 615.487 -112.716 534.312 -135.552 457.552C-156.139 389.18 -191.446 326.135 -239 272.835Z" fill="#CAB7B3" fill-opacity="0.79"/>
<path d="M0 256V145.5L131 95.5L267 54L350 35.5L434 26.5L520.5 23L0 256Z" fill="#CAB6B1"/>
</svg>
