<svg width="1920" height="562" viewBox="0 0 1920 562" fill="none" xmlns="http://www.w3.org/2000/svg">
<path d="M-223 157.421C-4.29582 370.273 265.207 507.983 551.5 555.5C670.5 569 785.605 557.243 902.063 538.304C1198.72 489.956 1427.39 366.58 1574.24 267.771L2018 452.912V-177.147L-223 -212V157.421Z" fill="#DFD2CF"/>
<path d="M-276 292.165C-163.569 363.798 -43.1881 422.139 82.7219 466.016C144.247 487.479 244.617 522.464 363.006 536.673C436.543 545.479 587.951 554.793 879.679 463.3C1135.85 382.971 1220.32 312.135 1605.79 138.463C1756.36 70.6123 1881.05 19.0599 1962 -13.7759C1957.46 -68.1044 1953.04 -74.6715 1948.4 -129H-161.795C-146.023 -50.4871 -149.716 30.6881 -172.552 107.448C-193.139 175.82 -228.446 238.865 -276 292.165Z" fill="#CAB7B3" fill-opacity="0.79"/>
<path d="M-37 309V419.5L94 469.5L230 511L313 529.5L397 538.5L483.5 542L-37 309Z" fill="#CAB6B1"/>
</svg>
